<svg xmlns="http://www.w3.org/2000/svg" width="56.65" height="73.01" viewBox="0 0 56.65 73.01">
  <g id="Group_1581" data-name="Group 1581" transform="translate(13.735 -5.833) rotate(20)">
    <path id="Path_752" data-name="Path 752" d="M43.254.289,2.821,15.724A4.384,4.384,0,0,0,.289,21.383L1.214,23.8a4.382,4.382,0,0,0,5.657,2.531L47.3,10.9a4.383,4.383,0,0,0,2.531-5.658l-.924-2.421A4.383,4.383,0,0,0,43.254.289" transform="translate(0.385 14.593)" fill="#FFFFFF"/>
    <path id="Path_753" data-name="Path 753" d="M.246,19.777a3.726,3.726,0,0,0,4.809,2.152l1.842-.7a3.725,3.725,0,0,0-.939-7.185c1.51-2.337,5.61-8.356,7.438-7.727,5.463,1.878,1.166,8.584-2.068,12.4C27.723,11.281,22.645.437,13.333,0,7.924-.247,5.968,10.723,5.5,14.02a3.716,3.716,0,0,0-1.264.246l-1.842.7A3.725,3.725,0,0,0,.246,19.777" transform="translate(17.055 0)" fill="#FFFFFF"/>
    <path id="Path_754" data-name="Path 754" d="M17.133,13.873c-4.954-.689-12.627-2.826-9.805-7.868C8.5,3.918,18.484,5.618,18.484,5.618S7.718-3.2,3.171,1.259c-6.655,6.528-3.215,18,13.963,12.614" transform="translate(0 9.134)" fill="#FFFFFF"/>
    <path id="Path_755" data-name="Path 755" d="M15.36,8.085,2.821,12.872A4.383,4.383,0,0,0,.289,18.53L5.727,32.772A4.381,4.381,0,0,0,11.384,35.3L44.344,22.72a4.382,4.382,0,0,0,2.532-5.657L41.439,2.821A4.384,4.384,0,0,0,35.781.289L23.242,5.076Z" transform="translate(8.688 27.982)" fill="#FFFFFF"/>
  </g>
</svg>
