<svg xmlns="http://www.w3.org/2000/svg" xmlns:xlink="http://www.w3.org/1999/xlink" width="105" height="60" viewBox="0 0 105 60">
  <defs>
    <clipPath id="clip-path">
      <rect id="Rectangle_1233" data-name="Rectangle 1233" width="104.999" height="60" transform="translate(2.076 4.263)" fill="none"/>
    </clipPath>
    <clipPath id="clip-path-2">
      <rect id="Rectangle_1234" data-name="Rectangle 1234" width="105" height="60" rx="4" transform="translate(2.076 4.263)" fill="none"/>
    </clipPath>
  </defs>
  <g id="Group_1634" data-name="Group 1634" transform="translate(-2.076 -4.263)">
    <g id="Group_1629" data-name="Group 1629">
      <g id="Group_1628" data-name="Group 1628" clip-path="url(#clip-path)">
        <path id="Path_1633" data-name="Path 1633" d="M6.076,4.263h97a4,4,0,0,1,4,4v52a4,4,0,0,1-4,4h-97a4,4,0,0,1-4-4v-52a4,4,0,0,1,4-4" fill="#1a6980"/>
      </g>
    </g>
    <g id="Group_1631" data-name="Group 1631">
      <g id="Group_1630" data-name="Group 1630" clip-path="url(#clip-path-2)">
        <path id="Path_1634" data-name="Path 1634" d="M81.78,49.256h-.013l0,0-8.255.128a.835.835,0,0,0-.822.849h0l.007.494a.837.837,0,0,0,.836.821h.008l8.255-.129a.836.836,0,0,0,.823-.849l-.007-.494a.836.836,0,0,0-.836-.823" fill="#458596"/>
        <path id="Path_1635" data-name="Path 1635" d="M80.09,45.669c-.873,0-1.767,1.552-2.04,2.057l-.242-.038-.376.006a.71.71,0,0,0-.7.721h0a.711.711,0,0,0,.711.7h.011l.375-.006a.71.71,0,0,0,.3-1.349,4.765,4.765,0,0,1,1.7-.941.22.22,0,0,1,.14.041c.857.693-.351,1.614-1.18,2.087,3.425-.261,3.221-2.536,1.581-3.222a.714.714,0,0,0-.277-.056" fill="#458596"/>
        <path id="Path_1636" data-name="Path 1636" d="M75.141,45.739a.8.8,0,0,0-.335.072c-1.618.736-1.75,3.016,1.679,3.172h0c-.843-.446-2.079-1.33-1.244-2.049a.314.314,0,0,1,.206-.058,5.958,5.958,0,0,1,1.819.716s-1.1-1.854-2.13-1.854" fill="#458596"/>
        <path id="Path_1637" data-name="Path 1637" d="M81.059,51.711h-.013l-2.56.04-1.609.025-2.56.04a.836.836,0,0,0-.823.849l.046,2.908a.835.835,0,0,0,.835.823h.013l6.729-.1a.837.837,0,0,0,.823-.849l-.045-2.908a.836.836,0,0,0-.836-.823" fill="#458596"/>
        <path id="Path_1638" data-name="Path 1638" d="M32.338,24.736h-.009l-8.255.129a.835.835,0,0,0-.822.849h0l.007.494a.837.837,0,0,0,.836.821H24.1l8.255-.129a.836.836,0,0,0,.823-.849l-.007-.494a.837.837,0,0,0-.836-.823" fill="#458596"/>
        <path id="Path_1639" data-name="Path 1639" d="M30.648,21.149c-.873,0-1.767,1.552-2.04,2.057l-.242-.038-.376.006a.71.71,0,0,0-.7.721h0a.711.711,0,0,0,.711.7h.011l.376-.006a.71.71,0,0,0,.3-1.349,4.765,4.765,0,0,1,1.7-.941.22.22,0,0,1,.14.041c.857.693-.351,1.614-1.18,2.087,3.425-.261,3.222-2.536,1.581-3.222a.714.714,0,0,0-.277-.056" fill="#458596"/>
        <path id="Path_1640" data-name="Path 1640" d="M25.7,21.219a.8.8,0,0,0-.335.072c-1.618.736-1.75,3.016,1.679,3.172h.005c-.843-.446-2.079-1.33-1.244-2.049a.314.314,0,0,1,.206-.058,5.965,5.965,0,0,1,1.819.717s-1.1-1.855-2.13-1.855" fill="#458596"/>
        <path id="Path_1641" data-name="Path 1641" d="M31.617,27.191H31.6l-2.56.04-1.609.025-2.56.04a.836.836,0,0,0-.823.849l.045,2.908a.836.836,0,0,0,.836.823h.013l6.729-.1a.837.837,0,0,0,.823-.849l-.046-2.908a.835.835,0,0,0-.835-.823" fill="#458596"/>
        <path id="Path_1642" data-name="Path 1642" d="M88.2,7.035h-.026l-16.526.258A1.674,1.674,0,0,0,70,8.989v0l.015.989a1.674,1.674,0,0,0,1.673,1.648h.026l16.531-.256a1.674,1.674,0,0,0,1.648-1.7l-.016-.99A1.674,1.674,0,0,0,88.2,7.035" fill="#458596"/>
        <path id="Path_1643" data-name="Path 1643" d="M87.256,4.263H84.811A8.2,8.2,0,0,1,82.2,6.417c2.79-.213,4.378-1.093,5.059-2.154m-6.044,0H78.571a1.421,1.421,0,0,0-.481,1.088l0,0a1.423,1.423,0,0,0,1.423,1.4h.021l.75-.014a1.423,1.423,0,0,0,.932-2.477" fill="#458596"/>
        <path id="Path_1644" data-name="Path 1644" d="M74.82,4.263H72.341c.626,1.146,2.265,2.092,5.263,2.228A7.669,7.669,0,0,1,74.82,4.263" fill="#458596"/>
        <path id="Path_1645" data-name="Path 1645" d="M86.754,11.945h-.027L81.6,12.03l-3.222.05-5.126.08a1.674,1.674,0,0,0-1.647,1.7l.09,5.821a1.673,1.673,0,0,0,1.672,1.648H73.4l13.475-.215a1.673,1.673,0,0,0,1.647-1.7l-.091-5.822a1.674,1.674,0,0,0-1.673-1.648" fill="#458596"/>
        <path id="Path_1646" data-name="Path 1646" d="M6,30.272H5.995l-3.919.061V32.5l3.948-.062a.836.836,0,0,0,.823-.849l-.007-.494A.837.837,0,0,0,6,30.272" fill="#458596"/>
        <path id="Path_1647" data-name="Path 1647" d="M4.314,26.685c-.873,0-1.767,1.552-2.04,2.057l-.2-.031v1.413a.71.71,0,0,0,.276-1.348,4.765,4.765,0,0,1,1.7-.941.22.22,0,0,1,.14.041c.857.693-.351,1.614-1.18,2.087,3.425-.261,3.221-2.536,1.581-3.222a.714.714,0,0,0-.277-.056" fill="#458596"/>
        <path id="Path_1648" data-name="Path 1648" d="M5.283,32.727H5.27l-2.56.04-.634.01v4.581l3.265-.051a.837.837,0,0,0,.823-.849L6.119,33.55a.837.837,0,0,0-.836-.823" fill="#458596"/>
        <path id="Path_1649" data-name="Path 1649" d="M103.924,12.95h-.009l-8.255.129a.835.835,0,0,0-.822.849h0l.007.494a.837.837,0,0,0,.836.821h.008l8.255-.128a.836.836,0,0,0,.823-.849l-.007-.494a.837.837,0,0,0-.836-.823" fill="#458596"/>
        <path id="Path_1650" data-name="Path 1650" d="M102.234,9.363c-.873,0-1.767,1.552-2.04,2.057l-.242-.038-.376.006a.71.71,0,0,0-.7.721h0a.711.711,0,0,0,.711.7H99.6l.376-.006a.71.71,0,0,0,.3-1.349,4.765,4.765,0,0,1,1.7-.941.22.22,0,0,1,.14.041c.857.693-.351,1.614-1.18,2.087,3.425-.261,3.222-2.536,1.581-3.222a.714.714,0,0,0-.277-.056" fill="#458596"/>
        <path id="Path_1651" data-name="Path 1651" d="M97.285,9.433a.8.8,0,0,0-.335.072c-1.618.736-1.75,3.016,1.679,3.172h.005c-.843-.446-2.079-1.33-1.244-2.049a.314.314,0,0,1,.206-.058,5.954,5.954,0,0,1,1.819.717s-1.1-1.855-2.13-1.855" fill="#458596"/>
        <path id="Path_1652" data-name="Path 1652" d="M103.2,15.4h-.013l-2.56.04-1.609.025-2.56.04a.836.836,0,0,0-.823.849l.045,2.908a.836.836,0,0,0,.836.823h.013l6.729-.106a.835.835,0,0,0,.823-.848l-.046-2.908a.835.835,0,0,0-.835-.823" fill="#458596"/>
        <path id="Path_1653" data-name="Path 1653" d="M107.076,38.085l-13.424.209A1.674,1.674,0,0,0,92,39.989v0l.015.989a1.673,1.673,0,0,0,1.673,1.648h.026l13.362-.207Z" fill="#458596"/>
        <path id="Path_1654" data-name="Path 1654" d="M106.809,30.852c-1.748,0-3.543,3.106-4.083,4.119a1.42,1.42,0,0,0-.461-.077h-.025l-.75.012a1.423,1.423,0,0,0-1.4,1.445l0,0a1.423,1.423,0,0,0,1.423,1.4h.021l.75-.013a1.423,1.423,0,0,0,.6-2.7c.744-.563,2.574-1.884,3.4-1.884a.432.432,0,0,1,.28.083,1.591,1.591,0,0,1,.517.669V30.877a1.419,1.419,0,0,0-.267-.025m.267,3.88c-.335,1.026-1.775,2.054-2.879,2.685a10.657,10.657,0,0,0,2.879-.577Z" fill="#458596"/>
        <path id="Path_1655" data-name="Path 1655" d="M96.91,31a1.6,1.6,0,0,0-.671.145c-3.24,1.469-3.5,6.035,3.365,6.346-1.688-.9-4.162-2.664-2.493-4.1a.621.621,0,0,1,.412-.116c1.127,0,3.642,1.434,3.642,1.434S98.965,31,96.91,31" fill="#458596"/>
        <path id="Path_1656" data-name="Path 1656" d="M107.076,42.972l-3.474.058-3.222.05-5.125.079a1.675,1.675,0,0,0-1.648,1.7l.09,5.821a1.674,1.674,0,0,0,1.673,1.648H95.4l11.679-.186Z" fill="#458596"/>
        <path id="Path_1657" data-name="Path 1657" d="M29.2,49.035h-.027v0l-16.526.257A1.674,1.674,0,0,0,11,50.989v0l.015.989a1.674,1.674,0,0,0,1.673,1.648h.026l16.531-.256a1.674,1.674,0,0,0,1.648-1.7l-.016-.99A1.674,1.674,0,0,0,29.2,49.035" fill="#458596"/>
        <path id="Path_1658" data-name="Path 1658" d="M25.809,41.852c-1.748,0-3.543,3.106-4.083,4.119a1.425,1.425,0,0,0-.461-.077H21.24l-.75.013a1.423,1.423,0,0,0-1.4,1.444l0,0a1.423,1.423,0,0,0,1.423,1.4h.021l.75-.013a1.423,1.423,0,0,0,.6-2.7c.744-.564,2.574-1.884,3.4-1.884a.432.432,0,0,1,.28.082c1.715,1.387-.7,3.232-2.362,4.18,6.86-.524,6.454-5.079,3.169-6.452a1.43,1.43,0,0,0-.557-.113" fill="#458596"/>
        <path id="Path_1659" data-name="Path 1659" d="M15.91,42a1.6,1.6,0,0,0-.671.145c-3.24,1.469-3.5,6.035,3.365,6.346-1.688-.9-4.163-2.664-2.493-4.1a.621.621,0,0,1,.412-.116c1.127,0,3.642,1.434,3.642,1.434S17.965,42,15.91,42" fill="#458596"/>
        <path id="Path_1660" data-name="Path 1660" d="M27.754,53.945h-.027L22.6,54.03l-3.222.05-5.126.08a1.676,1.676,0,0,0-1.648,1.7l.091,5.821a1.673,1.673,0,0,0,1.672,1.648H14.4l13.475-.215a1.673,1.673,0,0,0,1.647-1.7l-.091-5.822a1.674,1.674,0,0,0-1.673-1.648" fill="#458596"/>
        <path id="Path_1661" data-name="Path 1661" d="M2.2,7.286l-.544.008A1.674,1.674,0,0,0,0,8.99v0l.015.989a1.673,1.673,0,0,0,1.673,1.647h.026l.362-.005V8.263a4.035,4.035,0,0,1,.12-.977" fill="#fff"/>
        <path id="Path_1662" data-name="Path 1662" d="M18.2,7.035h-.026L2.2,7.285a4.035,4.035,0,0,0-.12.977v3.361l16.169-.25a1.674,1.674,0,0,0,1.648-1.7l-.016-.99A1.674,1.674,0,0,0,18.2,7.035" fill="#458596"/>
        <path id="Path_1663" data-name="Path 1663" d="M17.256,4.263H14.811A8.2,8.2,0,0,1,12.2,6.417c2.79-.213,4.378-1.093,5.059-2.154m-6.044,0H8.571A1.421,1.421,0,0,0,8.09,5.351l0,0a1.423,1.423,0,0,0,1.423,1.4H9.53l.75-.014a1.423,1.423,0,0,0,.932-2.477" fill="#458596"/>
        <path id="Path_1664" data-name="Path 1664" d="M4.91,0a1.6,1.6,0,0,0-.671.145c-2.307,1.046-3.1,3.662-.893,5.194a3.994,3.994,0,0,1,1.584-.91,1.362,1.362,0,0,1,.181-2.038.621.621,0,0,1,.412-.116c1.127,0,3.642,1.434,3.642,1.434S6.965,0,4.91,0" fill="#fff"/>
        <path id="Path_1665" data-name="Path 1665" d="M4.931,4.429a4.005,4.005,0,0,0-1.585.91A8.122,8.122,0,0,0,7.605,6.49,8.215,8.215,0,0,1,4.931,4.429" fill="#458596"/>
        <path id="Path_1666" data-name="Path 1666" d="M16.754,11.945h-.027L11.6,12.03l-3.222.05-5.126.08a1.664,1.664,0,0,0-1.178.512v8.044a1.67,1.67,0,0,0,1.293.613H3.4l13.475-.215a1.673,1.673,0,0,0,1.647-1.7l-.091-5.822a1.673,1.673,0,0,0-1.673-1.648" fill="#458596"/>
      </g>
    </g>
    <g id="Group_1633" data-name="Group 1633">
      <g id="Group_1632" data-name="Group 1632" clip-path="url(#clip-path)">
        <path id="Path_1667" data-name="Path 1667" d="M67.41,25.638l-27.269.426a2.761,2.761,0,0,0-2.723,2.8v0l.025,1.632a2.761,2.761,0,0,0,2.8,2.723h0l27.272-.429a2.762,2.762,0,0,0,2.723-2.8v0l-.025-1.633a2.761,2.761,0,0,0-2.8-2.723h0" fill="#fff"/>
        <path id="Path_1668" data-name="Path 1668" d="M50.76,22.861a2.349,2.349,0,0,0,2.383,2.311l1.243-.02a2.347,2.347,0,0,0,.992-4.457c1.4-1.059,5.123-3.739,6.07-2.972,2.83,2.29-1.16,5.335-3.894,6.9,11.308-.869,10.637-8.386,5.217-10.651-3.149-1.315-6.671,4.76-7.656,6.612a2.344,2.344,0,0,0-.805-.128l-1.237.025a2.347,2.347,0,0,0-2.31,2.383" fill="#fff500"/>
        <path id="Path_1669" data-name="Path 1669" d="M49.967,24.738c-2.785-1.476-6.868-4.4-4.111-6.772,1.143-.985,6.69,2.174,6.69,2.174s-4.477-7.542-8.13-5.881c-5.353,2.429-5.784,9.964,5.551,10.479" fill="#fff500"/>
        <path id="Path_1670" data-name="Path 1670" d="M51.242,33.959l-8.455.132a2.761,2.761,0,0,0-2.723,2.8v0l.149,9.6a2.761,2.761,0,0,0,2.8,2.723h0l22.23-.347a2.761,2.761,0,0,0,2.722-2.8v0l-.149-9.605a2.762,2.762,0,0,0-2.8-2.723h0l-8.456.133Z" fill="#fff"/>
      </g>
    </g>
  </g>
</svg>
