<svg xmlns="http://www.w3.org/2000/svg" width="168.945" height="155.981" viewBox="0 0 168.945 155.981">
  <g id="Group_1635" data-name="Group 1635" transform="translate(-1057.433 -318.238)">
    <g id="Group_1503" data-name="Group 1503" transform="translate(1189.396 336.346) rotate(20)" opacity="0.122">
      <path id="Path_752" data-name="Path 752" d="M37.273.249,2.431,13.55A3.777,3.777,0,0,0,.249,18.426l.8,2.086a3.776,3.776,0,0,0,4.875,2.181l34.843-13.3a3.777,3.777,0,0,0,2.181-4.876l-.8-2.086A3.777,3.777,0,0,0,37.273.249" transform="translate(0.332 12.576)" fill="#f29092"/>
      <path id="Path_753" data-name="Path 753" d="M.212,17.043A3.211,3.211,0,0,0,4.356,18.9l1.588-.606a3.21,3.21,0,0,0-.81-6.192c1.3-2.014,4.834-7.2,6.409-6.659,4.708,1.619,1,7.4-1.782,10.686C23.89,9.721,19.514.376,11.489,0,6.828-.213,5.143,9.241,4.743,12.081a3.2,3.2,0,0,0-1.089.212L2.066,12.9A3.21,3.21,0,0,0,.212,17.043" transform="translate(14.697 0)" fill="#f29092"/>
      <path id="Path_754" data-name="Path 754" d="M14.764,11.955C10.5,11.361,3.883,9.52,6.315,5.175c1.007-1.8,9.614-.335,9.614-.335s-9.278-7.6-13.2-3.756C-3,6.711-.038,16.595,14.764,11.955" transform="translate(0 7.871)" fill="#f29092"/>
      <path id="Path_755" data-name="Path 755" d="M13.236,6.967,2.431,11.092A3.777,3.777,0,0,0,.249,15.968L4.935,28.241A3.776,3.776,0,0,0,9.81,30.422l28.4-10.843A3.776,3.776,0,0,0,40.395,14.7L35.709,2.431A3.778,3.778,0,0,0,30.834.249L20.028,4.374Z" transform="translate(7.486 24.113)" fill="#f29092"/>
    </g>
    <g id="Group_1503-2" data-name="Group 1503" transform="translate(1148.069 322.192) rotate(20)" opacity="0.196">
      <path id="Path_752-2" data-name="Path 752" d="M18.618.125,1.214,6.768A1.887,1.887,0,0,0,.124,9.2l.4,1.042a1.886,1.886,0,0,0,2.435,1.09l17.4-6.643a1.887,1.887,0,0,0,1.09-2.435l-.4-1.042A1.887,1.887,0,0,0,18.618.125" transform="translate(0.166 6.281)" fill="#f29092"/>
      <path id="Path_753-2" data-name="Path 753" d="M.106,8.513a1.6,1.6,0,0,0,2.07.926l.793-.3a1.6,1.6,0,0,0-.4-3.093c.65-1.006,2.415-3.6,3.2-3.326,2.352.808.5,3.695-.89,5.337C11.933,4.856,9.747.188,5.739,0c-2.328-.108-3.17,4.614-3.37,6.033a1.6,1.6,0,0,0-.544.106l-.793.3a1.6,1.6,0,0,0-.926,2.07" transform="translate(7.341 0)" fill="#f29092"/>
      <path id="Path_754-2" data-name="Path 754" d="M7.375,5.971c-2.132-.3-5.435-1.217-4.221-3.386.5-.9,4.8-.167,4.8-.167S3.322-1.378,1.365.542C-1.5,3.352-.019,8.289,7.375,5.971" transform="translate(0 3.932)" fill="#f29092"/>
      <path id="Path_755-2" data-name="Path 755" d="M6.611,3.48l-5.4,2.06A1.886,1.886,0,0,0,.125,7.976l2.34,6.13A1.886,1.886,0,0,0,4.9,15.2L19.087,9.779a1.886,1.886,0,0,0,1.09-2.435l-2.34-6.13A1.887,1.887,0,0,0,15.4.124L10,2.185Z" transform="translate(3.739 12.044)" fill="#f29092"/>
    </g>
    <g id="Group_1503-3" data-name="Group 1503" transform="translate(1063.345 381.158) rotate(20)" opacity="0.451">
      <path id="Path_752-3" data-name="Path 752" d="M18.618.125,1.214,6.768A1.887,1.887,0,0,0,.124,9.2l.4,1.042a1.886,1.886,0,0,0,2.435,1.09l17.4-6.643a1.887,1.887,0,0,0,1.09-2.435l-.4-1.042A1.887,1.887,0,0,0,18.618.125" transform="translate(0.166 6.281)" fill="#f29092"/>
      <path id="Path_753-3" data-name="Path 753" d="M.106,8.513a1.6,1.6,0,0,0,2.07.926l.793-.3a1.6,1.6,0,0,0-.4-3.093c.65-1.006,2.415-3.6,3.2-3.326,2.352.808.5,3.695-.89,5.337C11.933,4.856,9.747.188,5.739,0c-2.328-.108-3.17,4.614-3.37,6.033a1.6,1.6,0,0,0-.544.106l-.793.3a1.6,1.6,0,0,0-.926,2.07" transform="translate(7.341 0)" fill="#f29092"/>
      <path id="Path_754-3" data-name="Path 754" d="M7.375,5.971c-2.132-.3-5.435-1.217-4.221-3.386.5-.9,4.8-.167,4.8-.167S3.322-1.378,1.365.542C-1.5,3.352-.019,8.289,7.375,5.971" transform="translate(0 3.932)" fill="#f29092"/>
      <path id="Path_755-3" data-name="Path 755" d="M6.611,3.48l-5.4,2.06A1.886,1.886,0,0,0,.125,7.976l2.34,6.13A1.886,1.886,0,0,0,4.9,15.2L19.087,9.779a1.886,1.886,0,0,0,1.09-2.435l-2.34-6.13A1.887,1.887,0,0,0,15.4.124L10,2.185Z" transform="translate(3.739 12.044)" fill="#f29092"/>
    </g>
    <g id="Group_1503-4" data-name="Group 1503" transform="translate(1083.505 314.604) rotate(20)" opacity="0.196">
      <path id="Path_752-4" data-name="Path 752" d="M26.943.18,1.757,9.795A2.731,2.731,0,0,0,.18,13.319l.576,1.508A2.73,2.73,0,0,0,4.28,16.4L29.466,6.79a2.73,2.73,0,0,0,1.577-3.525l-.575-1.508A2.73,2.73,0,0,0,26.943.18" transform="translate(0.24 9.09)" fill="#f29092"/>
      <path id="Path_753-4" data-name="Path 753" d="M.153,12.319a2.321,2.321,0,0,0,3,1.34L4.3,13.222a2.32,2.32,0,0,0-.585-4.476c.941-1.456,3.494-5.2,4.633-4.813,3.4,1.17.726,5.347-1.288,7.724C17.269,7.027,14.106.272,8.305,0,4.936-.154,3.718,6.68,3.428,8.733a2.315,2.315,0,0,0-.787.153l-1.148.438a2.321,2.321,0,0,0-1.34,3" transform="translate(10.624 0)" fill="#f29092"/>
      <path id="Path_754-4" data-name="Path 754" d="M10.673,8.642c-3.086-.429-7.866-1.761-6.108-4.9.728-1.3,6.949-.242,6.949-.242S4.808-1.994,1.975.785c-4.146,4.067-2,11.211,8.7,7.857" transform="translate(0 5.69)" fill="#f29092"/>
      <path id="Path_755-4" data-name="Path 755" d="M9.568,5.036,1.757,8.018A2.73,2.73,0,0,0,.18,11.542l3.387,8.872a2.729,2.729,0,0,0,3.524,1.577l20.532-7.838A2.73,2.73,0,0,0,29.2,10.629L25.813,1.757A2.731,2.731,0,0,0,22.289.18L14.478,3.162Z" transform="translate(5.412 17.43)" fill="#f29092"/>
    </g>
    <g id="Group_1503-5" data-name="Group 1503" transform="translate(1110.918 362.108) rotate(20)">
      <path id="Path_752-5" data-name="Path 752" d="M61.5.411,4.011,22.359A6.233,6.233,0,0,0,.411,30.4l1.314,3.442a6.231,6.231,0,0,0,8.044,3.6L67.263,15.5a6.232,6.232,0,0,0,3.6-8.046L69.549,4.011A6.233,6.233,0,0,0,61.5.411" transform="translate(0.547 20.751)" fill="#f29092"/>
      <path id="Path_753-5" data-name="Path 753" d="M.35,28.122a5.3,5.3,0,0,0,6.838,3.06l2.62-1A5.3,5.3,0,0,0,8.472,19.965c2.147-3.324,7.977-11.881,10.576-10.987,7.769,2.671,1.658,12.207-2.941,17.632C39.421,16.041,32.2.621,18.958.006,11.267-.352,8.486,15.248,7.826,19.935a5.284,5.284,0,0,0-1.8.349l-2.62,1A5.3,5.3,0,0,0,.35,28.122" transform="translate(24.251 0)" fill="#f29092"/>
      <path id="Path_754-5" data-name="Path 754" d="M24.363,19.727C17.318,18.747,6.408,15.708,10.42,8.54c1.662-2.969,15.864-.552,15.864-.552S10.975-4.551,4.508,1.791C-4.955,11.074-.063,27.383,24.363,19.727" transform="translate(0 12.989)" fill="#f29092"/>
      <path id="Path_755-5" data-name="Path 755" d="M21.841,11.5,4.011,18.3a6.232,6.232,0,0,0-3.6,8.046L8.143,46.6a6.23,6.23,0,0,0,8.044,3.6L63.055,32.307a6.232,6.232,0,0,0,3.6-8.044L58.924,4.011a6.233,6.233,0,0,0-8.045-3.6L33.049,7.218Z" transform="translate(12.353 39.788)" fill="#f29092"/>
    </g>
  </g>
</svg>
