<svg xmlns="http://www.w3.org/2000/svg" width="173.256" height="90.239" viewBox="0 0 173.256 90.239">
  <g id="Group_1636" data-name="Group 1636" transform="translate(-97.56 -379.373)">
    <g id="Group_1581" data-name="Group 1581" transform="translate(172.404 390.769) rotate(20)">
      <path id="Path_752" data-name="Path 752" d="M43.254.289,2.821,15.724A4.384,4.384,0,0,0,.289,21.383L1.214,23.8a4.382,4.382,0,0,0,5.657,2.531L47.3,10.9a4.383,4.383,0,0,0,2.531-5.658l-.924-2.421A4.383,4.383,0,0,0,43.254.289" transform="translate(0.385 14.593)" fill="#f29092"/>
      <path id="Path_753" data-name="Path 753" d="M.246,19.777a3.726,3.726,0,0,0,4.809,2.152l1.842-.7a3.725,3.725,0,0,0-.939-7.185c1.51-2.337,5.61-8.356,7.438-7.727,5.463,1.878,1.166,8.584-2.068,12.4C27.723,11.281,22.645.437,13.333,0,7.924-.247,5.968,10.723,5.5,14.02a3.716,3.716,0,0,0-1.264.246l-1.842.7A3.725,3.725,0,0,0,.246,19.777" transform="translate(17.055 0)" fill="#f29092"/>
      <path id="Path_754" data-name="Path 754" d="M17.133,13.873c-4.954-.689-12.627-2.826-9.805-7.868C8.5,3.918,18.484,5.618,18.484,5.618S7.718-3.2,3.171,1.259c-6.655,6.528-3.215,18,13.963,12.614" transform="translate(0 9.134)" fill="#f29092"/>
      <path id="Path_755" data-name="Path 755" d="M15.36,8.085,2.821,12.872A4.383,4.383,0,0,0,.289,18.53L5.727,32.772A4.381,4.381,0,0,0,11.384,35.3L44.344,22.72a4.382,4.382,0,0,0,2.532-5.657L41.439,2.821A4.384,4.384,0,0,0,35.781.289L23.242,5.076Z" transform="translate(8.688 27.982)" fill="#f29092"/>
    </g>
    <g id="Group_1585" data-name="Group 1585" transform="translate(109.396 374.346) rotate(20)" opacity="0.122">
      <path id="Path_752-2" data-name="Path 752" d="M37.273.249,2.431,13.55A3.777,3.777,0,0,0,.249,18.426l.8,2.086a3.776,3.776,0,0,0,4.875,2.181l34.843-13.3a3.777,3.777,0,0,0,2.181-4.876l-.8-2.086A3.777,3.777,0,0,0,37.273.249" transform="translate(0.332 12.576)" fill="#f29092"/>
      <path id="Path_753-2" data-name="Path 753" d="M.212,17.043A3.211,3.211,0,0,0,4.356,18.9l1.588-.606a3.21,3.21,0,0,0-.81-6.192c1.3-2.014,4.834-7.2,6.409-6.659,4.708,1.619,1,7.4-1.782,10.686C23.89,9.721,19.514.376,11.489,0,6.828-.213,5.143,9.241,4.743,12.081a3.2,3.2,0,0,0-1.089.212L2.066,12.9A3.21,3.21,0,0,0,.212,17.043" transform="translate(14.697 0)" fill="#f29092"/>
      <path id="Path_754-2" data-name="Path 754" d="M14.764,11.955C10.5,11.361,3.883,9.52,6.315,5.175c1.007-1.8,9.614-.335,9.614-.335s-9.278-7.6-13.2-3.756C-3,6.711-.038,16.595,14.764,11.955" transform="translate(0 7.871)" fill="#f29092"/>
      <path id="Path_755-2" data-name="Path 755" d="M13.236,6.967,2.431,11.092A3.777,3.777,0,0,0,.249,15.968L4.935,28.241A3.776,3.776,0,0,0,9.81,30.422l28.4-10.843A3.776,3.776,0,0,0,40.395,14.7L35.709,2.431A3.778,3.778,0,0,0,30.834.249L20.028,4.374Z" transform="translate(7.486 24.113)" fill="#f29092"/>
    </g>
    <g id="Group_1586" data-name="Group 1586" transform="translate(232.069 381.192) rotate(20)" opacity="0.196">
      <path id="Path_752-3" data-name="Path 752" d="M18.618.125,1.214,6.768A1.887,1.887,0,0,0,.124,9.2l.4,1.042a1.886,1.886,0,0,0,2.435,1.09l17.4-6.643a1.887,1.887,0,0,0,1.09-2.435l-.4-1.042A1.887,1.887,0,0,0,18.618.125" transform="translate(0.166 6.281)" fill="#f29092"/>
      <path id="Path_753-3" data-name="Path 753" d="M.106,8.513a1.6,1.6,0,0,0,2.07.926l.793-.3a1.6,1.6,0,0,0-.4-3.093c.65-1.006,2.415-3.6,3.2-3.326,2.352.808.5,3.695-.89,5.337C11.933,4.856,9.747.188,5.739,0c-2.328-.108-3.17,4.614-3.37,6.033a1.6,1.6,0,0,0-.544.106l-.793.3a1.6,1.6,0,0,0-.926,2.07" transform="translate(7.341 0)" fill="#f29092"/>
      <path id="Path_754-3" data-name="Path 754" d="M7.375,5.971c-2.132-.3-5.435-1.217-4.221-3.386.5-.9,4.8-.167,4.8-.167S3.322-1.378,1.365.542C-1.5,3.352-.019,8.289,7.375,5.971" transform="translate(0 3.932)" fill="#f29092"/>
      <path id="Path_755-3" data-name="Path 755" d="M6.611,3.48l-5.4,2.06A1.886,1.886,0,0,0,.125,7.976l2.34,6.13A1.886,1.886,0,0,0,4.9,15.2L19.087,9.779a1.886,1.886,0,0,0,1.09-2.435l-2.34-6.13A1.887,1.887,0,0,0,15.4.124L10,2.185Z" transform="translate(3.739 12.044)" fill="#f29092"/>
    </g>
    <g id="Group_1503" data-name="Group 1503" transform="translate(252.345 411.158) rotate(20)" opacity="0.451">
      <path id="Path_752-4" data-name="Path 752" d="M18.618.125,1.214,6.768A1.887,1.887,0,0,0,.124,9.2l.4,1.042a1.886,1.886,0,0,0,2.435,1.09l17.4-6.643a1.887,1.887,0,0,0,1.09-2.435l-.4-1.042A1.887,1.887,0,0,0,18.618.125" transform="translate(0.166 6.281)" fill="#f29092"/>
      <path id="Path_753-4" data-name="Path 753" d="M.106,8.513a1.6,1.6,0,0,0,2.07.926l.793-.3a1.6,1.6,0,0,0-.4-3.093c.65-1.006,2.415-3.6,3.2-3.326,2.352.808.5,3.695-.89,5.337C11.933,4.856,9.747.188,5.739,0c-2.328-.108-3.17,4.614-3.37,6.033a1.6,1.6,0,0,0-.544.106l-.793.3a1.6,1.6,0,0,0-.926,2.07" transform="translate(7.341 0)" fill="#f29092"/>
      <path id="Path_754-4" data-name="Path 754" d="M7.375,5.971c-2.132-.3-5.435-1.217-4.221-3.386.5-.9,4.8-.167,4.8-.167S3.322-1.378,1.365.542C-1.5,3.352-.019,8.289,7.375,5.971" transform="translate(0 3.932)" fill="#f29092"/>
      <path id="Path_755-4" data-name="Path 755" d="M6.611,3.48l-5.4,2.06A1.886,1.886,0,0,0,.125,7.976l2.34,6.13A1.886,1.886,0,0,0,4.9,15.2L19.087,9.779a1.886,1.886,0,0,0,1.09-2.435l-2.34-6.13A1.887,1.887,0,0,0,15.4.124L10,2.185Z" transform="translate(3.739 12.044)" fill="#f29092"/>
    </g>
  </g>
</svg>
