<svg xmlns="http://www.w3.org/2000/svg" width="115.165" height="101.788" viewBox="0 0 115.165 101.788">
  <g id="Group_809" data-name="Group 809" transform="translate(0 0)">
    <g id="Group_810" data-name="Group 810" transform="translate(0 0)">
      <path id="Path_648" data-name="Path 648" d="M92.046,65.586q-2.516-2.9-5.064-5.706,4.665-.627,9.314-1.089-2.185,3.423-4.25,6.794" transform="translate(9.145 6.181)" fill="#f29092"/>
      <path id="Path_649" data-name="Path 649" d="M98.967,40.337q1.073,1.329,2.14,2.673,2.135-.085,4.267-.127-1.442,1.376-2.878,2.755.5,1.588.991,3.177-1.935-.517-3.881-1-1.8,1.058-3.594,2.123c.123-1.113.257-2.227.393-3.346q-1.635-.889-3.277-1.744c1.4-.419,2.789-.829,4.19-1.226q.814-1.636,1.649-3.286" transform="translate(9.791 4.241)" fill="#f29092"/>
      <path id="Path_650" data-name="Path 650" d="M50.238,5.076c2.424.09,4.037,2.477,3.612,5.249-1.462,9.687-2.841,19.259-4.046,28.7-.929-9.477-2.059-19.128-3.291-28.94-.359-2.813,1.3-5.094,3.725-5.005" transform="translate(4.885 0.533)" fill="#f29092"/>
      <path id="Path_651" data-name="Path 651" d="M25.032,19.852c1.387-.839,3.476-.074,4.623,1.709,4.005,6.189,7.8,12.506,11.257,18.826a211.98,211.98,0,0,0-15.48-16.334c-1.585-1.5-1.791-3.366-.4-4.2" transform="translate(2.534 2.051)" fill="#f29092"/>
      <path id="Path_652" data-name="Path 652" d="M.112,33.568C.755,31.88,3.856,31.275,6.893,32.4A168.392,168.392,0,0,1,36.256,46.789,193.709,193.709,0,0,0,4.864,37.641C1.66,37-.528,35.256.112,33.568" transform="translate(0 3.346)" fill="#f29092"/>
      <path id="Path_653" data-name="Path 653" d="M93.988,37.16c.476,1.278-1.18,2.6-3.61,3.058a176.462,176.462,0,0,0-24.2,6.382A149.693,149.693,0,0,1,88.869,36.247c2.314-.821,4.646-.36,5.119.913" transform="translate(6.958 3.768)" fill="#f29092"/>
      <path id="Path_654" data-name="Path 654" d="M88,10.94c2.393,1.724,1.928,4.553-.923,6.507a167.544,167.544,0,0,0-27.43,24.112A258.906,258.906,0,0,1,79.863,12.482C81.937,9.867,85.615,9.222,88,10.94" transform="translate(6.272 1.05)" fill="#f29092"/>
      <path id="Path_655" data-name="Path 655" d="M34.97,2.359a2.342,2.342,0,0,1-2.383,2.147A2.211,2.211,0,0,1,30.02,2.72,2.372,2.372,0,0,1,32.411.532a2.193,2.193,0,0,1,2.56,1.827" transform="translate(3.156 0.055)" fill="#f29092"/>
      <path id="Path_656" data-name="Path 656" d="M59.443,29.271a2.1,2.1,0,0,1-2.311,1.788,1.937,1.937,0,1,1,.221-3.833,2.057,2.057,0,0,1,2.09,2.045" transform="translate(5.787 2.862)" fill="#f29092"/>
      <path id="Path_657" data-name="Path 657" d="M55.726,48.766a2.1,2.1,0,0,1-2.31,1.786,1.938,1.938,0,1,1,2.31-1.786" transform="translate(5.396 4.912)" fill="#f29092"/>
      <path id="Path_692" data-name="Path 692" d="M53.625,47.787a1.1,1.1,0,0,1-1.207.933,1.013,1.013,0,1,1,1.207-.933" transform="translate(9.459 0.328)" fill="#f29092"/>
      <path id="Path_658" data-name="Path 658" d="M25.736,48.458a1.551,1.551,0,0,1-1.521,1.906A2.368,2.368,0,0,1,21.9,48.63a1.535,1.535,0,0,1,1.523-1.915,2.281,2.281,0,0,1,2.313,1.743" transform="translate(2.297 4.911)" fill="#f29092"/>
      <path id="Path_659" data-name="Path 659" d="M83.917,47.145a2.49,2.49,0,0,1-2.5,1.509A1.464,1.464,0,0,1,80,46.764a2.358,2.358,0,0,1,2.491-1.521,1.468,1.468,0,0,1,1.428,1.9" transform="translate(8.404 4.755)" fill="#f29092"/>
      <path id="Path_660" data-name="Path 660" d="M38.278,12.681a1.807,1.807,0,0,1-3.542.145,1.8,1.8,0,0,1,3.542-.145" transform="translate(3.652 1.186)" fill="#f29092"/>
      <path id="Path_661" data-name="Path 661" d="M62.537,3.117a1.577,1.577,0,0,1-1.9,1.262,1.806,1.806,0,0,1-1.768-1.647,1.568,1.568,0,0,1,1.9-1.282,1.821,1.821,0,0,1,1.774,1.667" transform="translate(6.189 0.151)" fill="#f29092"/>
      <path id="Path_662" data-name="Path 662" d="M33.548,37.166a1.376,1.376,0,0,1-1.4,1.464,1.628,1.628,0,0,1-1.706-1.339,1.366,1.366,0,0,1,1.4-1.478,1.605,1.605,0,0,1,1.705,1.353" transform="translate(3.2 3.765)" fill="#f29092"/>
      <path id="Path_663" data-name="Path 663" d="M10.848,48.064a1.019,1.019,0,0,1-.979,1.39A1.972,1.972,0,0,1,7.963,48.3a1.017,1.017,0,0,1,.987-1.394,1.9,1.9,0,0,1,1.9,1.157" transform="translate(0.829 4.931)" fill="#f29092"/>
      <path id="Path_664" data-name="Path 664" d="M17.524,28.313a1.43,1.43,0,0,1-1.4,1.555,1.692,1.692,0,0,1-1.914-1.16,1.435,1.435,0,0,1,1.407-1.567,1.656,1.656,0,0,1,1.905,1.173" transform="translate(1.492 2.852)" fill="#f29092"/>
      <path id="Path_665" data-name="Path 665" d="M63.328,50.761a1.586,1.586,0,0,1-1.579,1.315,1.237,1.237,0,0,1-1.2-1.413,1.54,1.54,0,0,1,1.573-1.32,1.226,1.226,0,0,1,1.209,1.418" transform="translate(6.364 5.188)" fill="#f29092"/>
      <path id="Path_666" data-name="Path 666" d="M66.028,13.284a2,2,0,0,1-2.367,1.563A2.163,2.163,0,0,1,61.544,12.8a1.97,1.97,0,0,1,2.368-1.588,2.178,2.178,0,0,1,2.115,2.071" transform="translate(6.47 1.177)" fill="#f29092"/>
      <path id="Path_667" data-name="Path 667" d="M81.545,25.119q2.046-1.916,4.133-3.743,1.24,2.52,2.387,4.981-3.257-.663-6.52-1.238" transform="translate(8.573 2.247)" fill="#f29092"/>
      <path id="Path_668" data-name="Path 668" d="M45.59,37.978q2.788.961,5.5,1.958-2.284,1.693-4.469,3.416-.5-2.679-1.034-5.374" transform="translate(4.793 3.993)" fill="#f29092"/>
      <path id="Path_669" data-name="Path 669" d="M13.981,18.627q-1.855-2.138-3.735-4.209,3.443-.462,6.871-.8-1.611,2.523-3.135,5.012" transform="translate(1.077 1.431)" fill="#f29092"/>
      <path id="Path_670" data-name="Path 670" d="M19.089,0q.791.98,1.578,1.972c1.05-.041,2.1-.074,3.146-.094q-1.063,1.016-2.122,2.033.366,1.17.732,2.343Q21,5.873,19.561,5.517q-1.329.779-2.652,1.567c.092-.822.191-1.644.29-2.47q-1.2-.655-2.416-1.286,1.545-.464,3.09-.9c.4-.806.808-1.615,1.217-2.424" transform="translate(1.554 0)" fill="#f29092"/>
      <path id="Path_671" data-name="Path 671" d="M43.063,45.213q.794.981,1.581,1.973c1.048-.043,2.1-.072,3.15-.1-.715.677-1.419,1.355-2.122,2.035.24.781.486,1.564.728,2.343-.95-.255-1.907-.5-2.862-.737q-1.331.777-2.655,1.565c.1-.821.189-1.643.293-2.468-.806-.438-1.609-.866-2.417-1.285q1.543-.467,3.09-.905.6-1.208,1.213-2.425" transform="translate(4.075 4.754)" fill="#f29092"/>
      <path id="Path_672" data-name="Path 672" d="M47.158,95.092c-.91.007-1.693-2.036-1.7-4.553.046-8.785.469-17.739,1.169-26.85.946,9.116,1.658,18.066,2.043,26.839.09,2.514-.608,4.558-1.517,4.564" transform="translate(4.78 6.696)" fill="#f29092"/>
      <path id="Path_673" data-name="Path 673" d="M60.929,80.988c-.953.688-1.819-.1-2.048-1.781A103.977,103.977,0,0,0,54.689,61.2a85.765,85.765,0,0,1,7.217,15.921,3.657,3.657,0,0,1-.977,3.871" transform="translate(5.75 6.434)" fill="#f29092"/>
      <path id="Path_674" data-name="Path 674" d="M82.353,70.506c-1.554,1.455-3.536,1.6-4.658.217A132.22,132.22,0,0,0,61.586,54.7c7.9,4.087,14.833,8.039,20.663,11.459,1.686.991,1.653,2.892.1,4.348" transform="translate(6.475 5.751)" fill="#f29092"/>
      <path id="Path_675" data-name="Path 675" d="M16.058,67.366a2.127,2.127,0,0,1,.316-3.552C21.181,61,26.636,57.945,32.666,54.83A129.851,129.851,0,0,0,19.842,67.474a2.506,2.506,0,0,1-3.784-.108" transform="translate(1.603 5.765)" fill="#f29092"/>
      <path id="Path_676" data-name="Path 676" d="M33.256,93.413a8.589,8.589,0,0,1-2.668-6.278c.521-8.029,3.567-16.735,8.476-25.79-2.992,10.189-4.455,20.036-3.806,29.4.166,2.69-.565,3.864-2,2.672" transform="translate(3.215 6.45)" fill="#f29092"/>
      <path id="Path_678" data-name="Path 678" d="M40.278,70.616A1.477,1.477,0,0,1,41.592,68.8a1.853,1.853,0,0,1,1.641,1.838c.065,1.011-.521,1.821-1.312,1.814a1.938,1.938,0,0,1-1.643-1.837" transform="translate(4.233 7.234)" fill="#f29092"/>
      <path id="Path_679" data-name="Path 679" d="M69.449,52.541a2.251,2.251,0,0,1,2.267-1.691,1.463,1.463,0,0,1,1.422,1.877,2.344,2.344,0,0,1-2.273,1.679,1.474,1.474,0,0,1-1.416-1.864" transform="translate(7.297 5.346)" fill="#f29092"/>
      <path id="Path_680" data-name="Path 680" d="M15.1,55.459a1.284,1.284,0,0,1,1.217-1.821A2.515,2.515,0,0,1,18.7,55.324a1.294,1.294,0,0,1-1.2,1.817A2.666,2.666,0,0,1,15.1,55.459" transform="translate(1.576 5.639)" fill="#f29092"/>
      <path id="Path_681" data-name="Path 681" d="M52.45,85.412c.077-.728.526-1.335,1-1.354s.775.55.67,1.279-.557,1.333-1.007,1.357-.74-.55-.664-1.282" transform="translate(5.513 8.838)" fill="#f29092"/>
      <path id="Path_683" data-name="Path 683" d="M59.26,62.812a1.535,1.535,0,0,1,1.433-1.339,1.073,1.073,0,0,1,1,1.356,1.587,1.587,0,0,1-1.437,1.338,1.089,1.089,0,0,1-1-1.355" transform="translate(6.229 6.463)" fill="#f29092"/>
      <path id="Path_684" data-name="Path 684" d="M82.855,54.43A1.938,1.938,0,0,1,84.708,53.3a.905.905,0,0,1,.853,1.318A2.034,2.034,0,0,1,83.7,55.746a.912.912,0,0,1-.85-1.315" transform="translate(8.702 5.603)" fill="#f29092"/>
      <path id="Path_685" data-name="Path 685" d="M67.56,72.054a1.872,1.872,0,0,1,1.5-1.317c.6-.02.886.536.631,1.238A1.993,1.993,0,0,1,68.181,73.3c-.574.028-.849-.53-.621-1.241" transform="translate(7.095 7.437)" fill="#f29092"/>
      <path id="Path_686" data-name="Path 686" d="M32.437,49.706a1.228,1.228,0,0,1,1.229-1.418,1.571,1.571,0,0,1,1.576,1.358,1.237,1.237,0,0,1-1.223,1.411,1.61,1.61,0,0,1-1.581-1.352" transform="translate(3.409 5.077)" fill="#f29092"/>
      <path id="Path_687" data-name="Path 687" d="M39.555,85.974c-.179-.923.164-1.648.759-1.625s1.191.79,1.323,1.717-.207,1.652-.758,1.626-1.144-.8-1.324-1.718" transform="translate(4.153 8.868)" fill="#f29092"/>
      <path id="Path_688" data-name="Path 688" d="M28.6,76.649q-.171,2.1-.176,4.166Q26.665,78.6,24.807,76.4q1.891.136,3.79.248" transform="translate(2.608 8.033)" fill="#f29092"/>
      <path id="Path_689" data-name="Path 689" d="M50.028,62.042q-2.211-.923-4.5-1.847Q47.348,58.5,49.3,56.815c.254,1.749.5,3.492.725,5.227" transform="translate(4.786 5.974)" fill="#f29092"/>
      <path id="Path_690" data-name="Path 690" d="M65.549,81.441q-.078,2.11-.319,4.18-1.489.061-3,.086,1.6-2.14,3.32-4.266" transform="translate(6.542 8.563)" fill="#f29092"/>
    </g>
  </g>
</svg>
