<svg xmlns="http://www.w3.org/2000/svg" width="136.884" height="120.984" viewBox="0 0 136.884 120.984">
  <g id="Group_1547" data-name="Group 1547" transform="translate(0 0)">
    <g id="Group_810" data-name="Group 810" transform="translate(0 0)">
      <path id="Path_648" data-name="Path 648" d="M93,66.868q-2.991-3.444-6.019-6.782,5.545-.745,11.071-1.294-2.6,4.069-5.052,8.076" transform="translate(27.274 18.434)" fill="#43966a"/>
      <path id="Path_649" data-name="Path 649" d="M100.069,40.337q1.275,1.58,2.543,3.177,2.538-.1,5.072-.151-1.714,1.635-3.421,3.275.589,1.888,1.178,3.776-2.3-.615-4.613-1.189-2.142,1.257-4.272,2.523c.146-1.323.306-2.647.468-3.977q-1.943-1.056-3.895-2.073c1.66-.5,3.315-.985,4.98-1.457q.967-1.945,1.96-3.905" transform="translate(29.202 12.648)" fill="#43966a"/>
      <path id="Path_650" data-name="Path 650" d="M50.95,5.077c2.881.106,4.8,2.944,4.293,6.239C53.5,22.829,51.865,34.208,50.434,45.424c-1.1-11.264-2.447-22.735-3.912-34.4-.427-3.343,1.55-6.054,4.428-5.949" transform="translate(14.569 1.591)" fill="#43966a"/>
      <path id="Path_651" data-name="Path 651" d="M25.207,19.917c1.649-1,4.131-.088,5.495,2.031,4.76,7.356,9.271,14.864,13.38,22.376a251.958,251.958,0,0,0-18.4-19.414c-1.884-1.777-2.129-4-.476-4.993" transform="translate(7.558 6.118)" fill="#43966a"/>
      <path id="Path_652" data-name="Path 652" d="M.133,33.9C.9,31.89,4.583,31.171,8.193,32.5a200.149,200.149,0,0,1,34.9,17.106A230.242,230.242,0,0,0,5.781,38.738C1.973,37.979-.628,35.9.133,33.9" transform="translate(0 9.979)" fill="#43966a"/>
      <path id="Path_653" data-name="Path 653" d="M99.232,37.41c.566,1.518-1.4,3.093-4.291,3.635A209.741,209.741,0,0,0,66.178,48.63a177.924,177.924,0,0,1,26.97-12.305c2.751-.976,5.522-.428,6.084,1.085" transform="translate(20.751 11.236)" fill="#43966a"/>
      <path id="Path_654" data-name="Path 654" d="M93.351,11.12c2.844,2.049,2.292,5.412-1.1,7.734a199.141,199.141,0,0,0-32.6,28.659A307.734,307.734,0,0,1,83.674,12.953c2.466-3.108,6.837-3.875,9.677-1.832" transform="translate(18.704 3.13)" fill="#43966a"/>
      <path id="Path_655" data-name="Path 655" d="M35.9,2.7a2.784,2.784,0,0,1-2.832,2.552c-1.613.112-2.977-.821-3.051-2.123a2.82,2.82,0,0,1,2.841-2.6C34.5.41,35.859,1.4,35.9,2.7" transform="translate(9.412 0.164)" fill="#43966a"/>
      <path id="Path_656" data-name="Path 656" d="M60.272,29.657a2.5,2.5,0,0,1-2.747,2.125,2.46,2.46,0,0,1-2.48-2.4,2.64,2.64,0,0,1,5.227.278" transform="translate(17.259 8.535)" fill="#43966a"/>
      <path id="Path_657" data-name="Path 657" d="M56.555,49.153a2.5,2.5,0,0,1-2.745,2.123,2.3,2.3,0,1,1,2.745-2.123" transform="translate(16.094 14.648)" fill="#43966a"/>
      <path id="Path_692" data-name="Path 692" d="M54.058,47.989A1.307,1.307,0,0,1,52.624,49.1a1.2,1.2,0,1,1,1.434-1.109" transform="translate(20.923 9.199)" fill="#43966a"/>
      <path id="Path_658" data-name="Path 658" d="M26.469,48.787a1.843,1.843,0,0,1-1.807,2.266,2.815,2.815,0,0,1-2.752-2.061,1.825,1.825,0,0,1,1.81-2.276,2.711,2.711,0,0,1,2.749,2.071" transform="translate(6.852 14.647)" fill="#43966a"/>
      <path id="Path_659" data-name="Path 659" d="M84.669,47.506A2.96,2.96,0,0,1,81.692,49.3a1.74,1.74,0,0,1-1.681-2.246,2.8,2.8,0,0,1,2.961-1.807,1.744,1.744,0,0,1,1.7,2.261" transform="translate(25.063 14.182)" fill="#43966a"/>
      <path id="Path_660" data-name="Path 660" d="M38.946,12.946a2.148,2.148,0,0,1-4.21.172,2.143,2.143,0,0,1,4.21-.172" transform="translate(10.891 3.536)" fill="#43966a"/>
      <path id="Path_661" data-name="Path 661" d="M63.23,3.434a1.874,1.874,0,0,1-2.263,1.5,2.147,2.147,0,0,1-2.1-1.957,1.864,1.864,0,0,1,2.257-1.524A2.164,2.164,0,0,1,63.23,3.434" transform="translate(18.457 0.45)" fill="#43966a"/>
      <path id="Path_662" data-name="Path 662" d="M34.135,37.421a1.636,1.636,0,0,1-1.659,1.74,1.935,1.935,0,0,1-2.028-1.592,1.623,1.623,0,0,1,1.66-1.756,1.908,1.908,0,0,1,2.027,1.608" transform="translate(9.544 11.229)" fill="#43966a"/>
      <path id="Path_663" data-name="Path 663" d="M11.406,48.283a1.211,1.211,0,0,1-1.164,1.652,2.344,2.344,0,0,1-2.265-1.371,1.209,1.209,0,0,1,1.173-1.656,2.256,2.256,0,0,1,2.255,1.375" transform="translate(2.473 14.706)" fill="#43966a"/>
      <path id="Path_664" data-name="Path 664" d="M18.153,28.537a1.7,1.7,0,0,1-1.662,1.848,2.011,2.011,0,0,1-2.275-1.379,1.705,1.705,0,0,1,1.672-1.863,1.968,1.968,0,0,1,2.265,1.394" transform="translate(4.45 8.505)" fill="#43966a"/>
      <path id="Path_665" data-name="Path 665" d="M63.854,51.029a1.885,1.885,0,0,1-1.877,1.563,1.47,1.47,0,0,1-1.429-1.68,1.831,1.831,0,0,1,1.869-1.568,1.457,1.457,0,0,1,1.437,1.685" transform="translate(18.982 15.471)" fill="#43966a"/>
      <path id="Path_666" data-name="Path 666" d="M66.874,13.678a2.371,2.371,0,0,1-2.814,1.857A2.571,2.571,0,0,1,61.545,13.1a2.342,2.342,0,0,1,2.815-1.888,2.588,2.588,0,0,1,2.514,2.462" transform="translate(19.297 3.51)" fill="#43966a"/>
      <path id="Path_667" data-name="Path 667" d="M81.545,25.825q2.431-2.278,4.913-4.449,1.474,2.995,2.837,5.92-3.872-.788-7.75-1.471" transform="translate(25.569 6.702)" fill="#43966a"/>
      <path id="Path_668" data-name="Path 668" d="M45.59,37.978q3.314,1.143,6.542,2.328-2.715,2.012-5.312,4.06-.593-3.184-1.229-6.388" transform="translate(14.295 11.908)" fill="#43966a"/>
      <path id="Path_669" data-name="Path 669" d="M14.686,19.572q-2.2-2.542-4.44-5,4.092-.55,8.166-.954-1.915,3-3.727,5.957" transform="translate(3.213 4.269)" fill="#43966a"/>
      <path id="Path_670" data-name="Path 670" d="M19.9,0q.94,1.164,1.876,2.343c1.248-.049,2.5-.088,3.74-.112Q24.253,3.44,22.994,4.649q.435,1.391.87,2.785-1.7-.453-3.4-.876-1.58.926-3.153,1.863c.109-.977.227-1.955.344-2.936q-1.43-.778-2.871-1.529,1.836-.552,3.673-1.074C18.93,1.923,19.415.962,19.9,0" transform="translate(4.635 0)" fill="#43966a"/>
      <path id="Path_671" data-name="Path 671" d="M43.875,45.213q.944,1.166,1.88,2.345c1.245-.051,2.494-.085,3.744-.113-.85.805-1.687,1.61-2.522,2.418.285.929.578,1.859.866,2.785-1.13-.3-2.267-.6-3.4-.876q-1.582.924-3.155,1.86c.113-.976.225-1.953.348-2.933-.958-.52-1.913-1.03-2.873-1.528q1.834-.556,3.673-1.076.709-1.436,1.442-2.882" transform="translate(12.154 14.177)" fill="#43966a"/>
      <path id="Path_672" data-name="Path 672" d="M47.478,101.014c-1.081.008-2.012-2.42-2.015-5.412.055-10.441.557-21.084,1.39-31.914,1.124,10.836,1.97,21.473,2.429,31.9.106,2.988-.722,5.417-1.8,5.425" transform="translate(14.255 19.97)" fill="#43966a"/>
      <path id="Path_673" data-name="Path 673" d="M62.105,84.721c-1.132.818-2.162-.125-2.434-2.117A123.586,123.586,0,0,0,54.689,61.2a101.939,101.939,0,0,1,8.578,18.923,4.346,4.346,0,0,1-1.161,4.6" transform="translate(17.148 19.188)" fill="#43966a"/>
      <path id="Path_674" data-name="Path 674" d="M86.269,73.487c-1.847,1.73-4.2,1.9-5.537.257A157.156,157.156,0,0,0,61.586,54.7c9.385,4.858,17.631,9.555,24.56,13.62,2,1.178,1.965,3.438.123,5.168" transform="translate(19.311 17.151)" fill="#43966a"/>
      <path id="Path_675" data-name="Path 675" d="M16.21,69.73c-1.384-1.394-1.277-3.258.376-4.222,5.714-3.339,12.2-6.975,19.365-10.678A154.34,154.34,0,0,0,20.707,69.858a2.979,2.979,0,0,1-4.5-.129" transform="translate(4.782 17.192)" fill="#43966a"/>
      <path id="Path_676" data-name="Path 676" d="M33.761,99.461A10.209,10.209,0,0,1,30.59,92c.619-9.543,4.24-19.891,10.075-30.653C37.109,73.456,35.37,85.16,36.141,96.284c.2,3.2-.671,4.592-2.38,3.176" transform="translate(9.588 19.235)" fill="#43966a"/>
      <path id="Path_678" data-name="Path 678" d="M40.281,70.958A1.756,1.756,0,0,1,41.843,68.8a2.2,2.2,0,0,1,1.951,2.184c.077,1.2-.619,2.165-1.559,2.156a2.3,2.3,0,0,1-1.953-2.183" transform="translate(12.625 21.573)" fill="#43966a"/>
      <path id="Path_679" data-name="Path 679" d="M69.457,52.861a2.675,2.675,0,0,1,2.694-2.01,1.739,1.739,0,0,1,1.691,2.23,2.787,2.787,0,0,1-2.7,2,1.752,1.752,0,0,1-1.683-2.216" transform="translate(21.763 15.943)" fill="#43966a"/>
      <path id="Path_680" data-name="Path 680" d="M15.117,55.8a1.527,1.527,0,0,1,1.446-2.165,2.989,2.989,0,0,1,2.831,2,1.538,1.538,0,0,1-1.43,2.159,3.168,3.168,0,0,1-2.846-2" transform="translate(4.702 16.818)" fill="#43966a"/>
      <path id="Path_681" data-name="Path 681" d="M52.452,85.667c.092-.866.625-1.587,1.19-1.609s.921.654.8,1.52-.662,1.584-1.2,1.613-.88-.654-.789-1.524" transform="translate(16.443 26.357)" fill="#43966a"/>
      <path id="Path_683" data-name="Path 683" d="M59.263,63.065a1.824,1.824,0,0,1,1.7-1.592,1.275,1.275,0,0,1,1.194,1.612,1.886,1.886,0,0,1-1.708,1.591,1.3,1.3,0,0,1-1.19-1.61" transform="translate(18.576 19.275)" fill="#43966a"/>
      <path id="Path_684" data-name="Path 684" d="M82.871,54.645a2.3,2.3,0,0,1,2.2-1.349,1.076,1.076,0,0,1,1.014,1.567,2.418,2.418,0,0,1-2.207,1.345,1.084,1.084,0,0,1-1.01-1.563" transform="translate(25.954 16.71)" fill="#43966a"/>
      <path id="Path_685" data-name="Path 685" d="M67.575,72.3a2.226,2.226,0,0,1,1.785-1.566c.719-.024,1.053.637.75,1.471a2.369,2.369,0,0,1-1.8,1.57c-.682.033-1.009-.631-.738-1.475" transform="translate(21.159 22.18)" fill="#43966a"/>
      <path id="Path_686" data-name="Path 686" d="M32.44,49.973A1.459,1.459,0,0,1,33.9,48.288,1.867,1.867,0,0,1,35.773,49.9a1.471,1.471,0,0,1-1.454,1.677,1.914,1.914,0,0,1-1.88-1.606" transform="translate(10.167 15.141)" fill="#43966a"/>
      <path id="Path_687" data-name="Path 687" d="M39.563,86.28c-.213-1.1.194-1.959.9-1.931s1.416.939,1.572,2.041-.246,1.964-.9,1.932-1.36-.947-1.574-2.043" transform="translate(12.388 26.448)" fill="#43966a"/>
      <path id="Path_688" data-name="Path 688" d="M29.311,76.7q-.2,2.5-.209,4.952-2.087-2.638-4.3-5.246,2.248.162,4.5.294" transform="translate(7.778 23.956)" fill="#43966a"/>
      <path id="Path_689" data-name="Path 689" d="M50.878,63.028q-2.628-1.1-5.353-2.195,2.167-2.01,4.491-4.018c.3,2.079.594,4.151.862,6.213" transform="translate(14.275 17.815)" fill="#43966a"/>
      <path id="Path_690" data-name="Path 690" d="M66.175,81.441q-.093,2.508-.38,4.968-1.769.073-3.566.1,1.9-2.544,3.946-5.07" transform="translate(19.513 25.536)" fill="#43966a"/>
    </g>
  </g>
</svg>
