<svg xmlns="http://www.w3.org/2000/svg" width="74.188" height="65.571" viewBox="0 0 74.188 65.571">
  <g id="Group_1546" data-name="Group 1546" transform="translate(0 0)">
    <g id="Group_810" data-name="Group 810" transform="translate(0 0)">
      <path id="Path_648" data-name="Path 648" d="M90.244,63.169q-1.621-1.867-3.262-3.676,3.005-.4,6-.7Q91.575,61,90.244,63.169" transform="translate(-25.058 -16.937)" fill="#f29092"/>
      <path id="Path_649" data-name="Path 649" d="M96.89,40.337q.691.856,1.378,1.722,1.375-.054,2.749-.082-.929.886-1.854,1.775.319,1.023.639,2.047-1.246-.333-2.5-.644-1.161.681-2.315,1.368c.079-.717.166-1.435.253-2.156q-1.053-.572-2.111-1.123c.9-.27,1.8-.534,2.7-.79q.524-1.054,1.062-2.117" transform="translate(-26.829 -11.62)" fill="#f29092"/>
      <path id="Path_650" data-name="Path 650" d="M48.9,5.075c1.561.058,2.6,1.6,2.327,3.382-.942,6.24-1.83,12.407-2.606,18.486-.6-6.1-1.326-12.322-2.12-18.643-.231-1.812.84-3.281,2.4-3.224" transform="translate(-13.385 -1.462)" fill="#f29092"/>
      <path id="Path_651" data-name="Path 651" d="M24.7,19.731a2.342,2.342,0,0,1,2.978,1.1c2.58,3.987,5.025,8.056,7.252,12.128A136.555,136.555,0,0,0,24.96,22.437c-1.021-.963-1.154-2.169-.258-2.706" transform="translate(-6.944 -5.621)" fill="#f29092"/>
      <path id="Path_652" data-name="Path 652" d="M.072,32.948c.414-1.087,2.412-1.477,4.368-.755a108.477,108.477,0,0,1,18.916,9.271A124.786,124.786,0,0,0,3.133,35.572C1.069,35.161-.34,34.036.072,32.948" transform="translate(0 -9.168)" fill="#f29092"/>
      <path id="Path_653" data-name="Path 653" d="M84.093,36.689c.307.823-.76,1.677-2.326,1.97A113.675,113.675,0,0,0,66.178,42.77,96.431,96.431,0,0,1,80.8,36.1c1.491-.529,2.993-.232,3.3.588" transform="translate(-19.065 -10.323)" fill="#f29092"/>
      <path id="Path_654" data-name="Path 654" d="M77.916,10.6c1.541,1.111,1.242,2.933-.594,4.192a107.93,107.93,0,0,0-17.67,15.533,166.785,166.785,0,0,1,13.02-18.731,3.932,3.932,0,0,1,5.245-.993" transform="translate(-17.185 -2.876)" fill="#f29092"/>
      <path id="Path_655" data-name="Path 655" d="M33.208,1.706a1.509,1.509,0,0,1-1.535,1.383,1.424,1.424,0,0,1-1.654-1.15,1.528,1.528,0,0,1,1.54-1.41,1.412,1.412,0,0,1,1.649,1.177" transform="translate(-8.648 -0.151)" fill="#f29092"/>
      <path id="Path_656" data-name="Path 656" d="M57.877,28.542a1.355,1.355,0,0,1-1.489,1.152,1.248,1.248,0,1,1,1.489-1.152" transform="translate(-15.857 -7.842)" fill="#f29092"/>
      <path id="Path_657" data-name="Path 657" d="M54.16,48.036a1.356,1.356,0,0,1-1.488,1.15,1.248,1.248,0,1,1,1.488-1.15" transform="translate(-14.786 -13.458)" fill="#f29092"/>
      <path id="Path_692" data-name="Path 692" d="M52.807,47.406a.708.708,0,0,1-.777.6.652.652,0,1,1,.777-.6" transform="translate(-12.168 -16.41)" fill="#f29092"/>
      <path id="Path_658" data-name="Path 658" d="M24.355,47.837a1,1,0,0,1-.98,1.228,1.526,1.526,0,0,1-1.491-1.117.989.989,0,0,1,.981-1.234,1.469,1.469,0,0,1,1.49,1.123" transform="translate(-6.296 -13.457)" fill="#f29092"/>
      <path id="Path_659" data-name="Path 659" d="M82.5,46.464a1.6,1.6,0,0,1-1.613.972.943.943,0,0,1-.911-1.217,1.519,1.519,0,0,1,1.6-.98.945.945,0,0,1,.92,1.225" transform="translate(-23.027 -13.03)" fill="#f29092"/>
      <path id="Path_660" data-name="Path 660" d="M37.017,12.182a1.164,1.164,0,0,1-2.282.093,1.161,1.161,0,0,1,2.282-.093" transform="translate(-10.006 -3.249)" fill="#f29092"/>
      <path id="Path_661" data-name="Path 661" d="M61.23,2.519A1.016,1.016,0,0,1,60,3.332a1.164,1.164,0,0,1-1.139-1.061,1.01,1.01,0,0,1,1.223-.826A1.173,1.173,0,0,1,61.23,2.519" transform="translate(-16.958 -0.414)" fill="#f29092"/>
      <path id="Path_662" data-name="Path 662" d="M32.441,36.684a.886.886,0,0,1-.9.943,1.049,1.049,0,0,1-1.1-.863.88.88,0,0,1,.9-.952,1.034,1.034,0,0,1,1.1.871" transform="translate(-8.768 -10.317)" fill="#f29092"/>
      <path id="Path_663" data-name="Path 663" d="M9.794,47.65a.656.656,0,0,1-.631.9A1.27,1.27,0,0,1,7.936,47.8a.655.655,0,0,1,.636-.9,1.223,1.223,0,0,1,1.222.745" transform="translate(-2.272 -13.511)" fill="#f29092"/>
      <path id="Path_664" data-name="Path 664" d="M16.338,27.89a.921.921,0,0,1-.9,1,1.09,1.09,0,0,1-1.233-.748.924.924,0,0,1,.906-1.01,1.066,1.066,0,0,1,1.227.755" transform="translate(-4.088 -7.814)" fill="#f29092"/>
      <path id="Path_665" data-name="Path 665" d="M62.334,50.256a1.022,1.022,0,0,1-1.017.847.8.8,0,0,1-.775-.911.992.992,0,0,1,1.013-.85.79.79,0,0,1,.779.913" transform="translate(-17.439 -14.214)" fill="#f29092"/>
      <path id="Path_666" data-name="Path 666" d="M64.432,12.541a1.285,1.285,0,0,1-1.525,1.007,1.394,1.394,0,0,1-1.363-1.318,1.269,1.269,0,0,1,1.526-1.023,1.4,1.4,0,0,1,1.363,1.334" transform="translate(-17.729 -3.225)" fill="#f29092"/>
      <path id="Path_667" data-name="Path 667" d="M81.545,23.787q1.318-1.234,2.663-2.411.8,1.623,1.538,3.209-2.1-.427-4.2-.8" transform="translate(-23.492 -6.158)" fill="#f29092"/>
      <path id="Path_668" data-name="Path 668" d="M45.59,37.978q1.8.619,3.545,1.262-1.472,1.09-2.879,2.2-.321-1.726-.666-3.462" transform="translate(-13.134 -10.941)" fill="#f29092"/>
      <path id="Path_669" data-name="Path 669" d="M12.652,16.844q-1.195-1.378-2.406-2.712,2.218-.3,4.426-.517-1.038,1.625-2.02,3.229" transform="translate(-2.952 -3.922)" fill="#f29092"/>
      <path id="Path_670" data-name="Path 670" d="M17.556,0q.509.631,1.017,1.27c.676-.026,1.353-.048,2.027-.061q-.685.655-1.367,1.31.236.754.471,1.509-.919-.246-1.844-.475-.856.5-1.709,1.01c.059-.53.123-1.059.187-1.591q-.775-.422-1.556-.829,1-.3,1.991-.582c.258-.519.52-1.04.784-1.561" transform="translate(-4.259)" fill="#f29092"/>
      <path id="Path_671" data-name="Path 671" d="M41.532,45.213q.512.632,1.019,1.271c.675-.028,1.352-.046,2.029-.061-.461.436-.914.873-1.367,1.311.154.5.313,1.007.469,1.509-.612-.164-1.229-.323-1.844-.475q-.858.5-1.71,1.008c.061-.529.122-1.059.189-1.59-.519-.282-1.037-.558-1.557-.828q.994-.3,1.991-.583.384-.778.782-1.562" transform="translate(-11.166 -13.025)" fill="#f29092"/>
      <path id="Path_672" data-name="Path 672" d="M46.555,83.918c-.586,0-1.091-1.311-1.092-2.933.03-5.659.3-11.427.753-17.3.609,5.873,1.068,11.638,1.316,17.29.058,1.62-.392,2.936-.977,2.94" transform="translate(-13.097 -18.347)" fill="#f29092"/>
      <path id="Path_673" data-name="Path 673" d="M58.709,73.946c-.614.444-1.172-.068-1.319-1.148a66.981,66.981,0,0,0-2.7-11.6,55.249,55.249,0,0,1,4.649,10.256,2.356,2.356,0,0,1-.629,2.494" transform="translate(-15.755 -17.629)" fill="#f29092"/>
      <path id="Path_674" data-name="Path 674" d="M74.964,64.882c-1,.938-2.278,1.032-3,.14A85.175,85.175,0,0,0,61.586,54.7c5.087,2.633,9.555,5.179,13.311,7.382,1.086.639,1.065,1.863.067,2.8" transform="translate(-17.742 -15.758)" fill="#f29092"/>
      <path id="Path_675" data-name="Path 675" d="M15.771,62.905a1.37,1.37,0,0,1,.2-2.288c3.1-1.81,6.611-3.78,10.5-5.787a83.649,83.649,0,0,0-8.261,8.145,1.614,1.614,0,0,1-2.438-.07" transform="translate(-4.394 -15.795)" fill="#f29092"/>
      <path id="Path_676" data-name="Path 676" d="M32.3,82a5.533,5.533,0,0,1-1.719-4.044c.335-5.172,2.3-10.781,5.46-16.613a54.214,54.214,0,0,0-2.452,18.936C33.7,82.014,33.229,82.77,32.3,82" transform="translate(-8.809 -17.672)" fill="#f29092"/>
      <path id="Path_678" data-name="Path 678" d="M40.273,69.97A.951.951,0,0,1,41.12,68.8a1.194,1.194,0,0,1,1.057,1.184c.042.651-.335,1.173-.845,1.168a1.248,1.248,0,0,1-1.059-1.183" transform="translate(-11.599 -19.82)" fill="#f29092"/>
      <path id="Path_679" data-name="Path 679" d="M69.434,51.938a1.45,1.45,0,0,1,1.46-1.089.943.943,0,0,1,.916,1.209,1.51,1.51,0,0,1-1.464,1.081.95.95,0,0,1-.912-1.2" transform="translate(-19.995 -14.648)" fill="#f29092"/>
      <path id="Path_680" data-name="Path 680" d="M15.061,54.811a.827.827,0,0,1,.784-1.173,1.62,1.62,0,0,1,1.534,1.086.833.833,0,0,1-.775,1.17,1.717,1.717,0,0,1-1.543-1.083" transform="translate(-4.32 -15.451)" fill="#f29092"/>
      <path id="Path_681" data-name="Path 681" d="M52.446,84.93c.05-.469.339-.86.645-.872s.5.355.431.824-.359.859-.649.874-.477-.355-.428-.826" transform="translate(-15.106 -24.215)" fill="#f29092"/>
      <path id="Path_683" data-name="Path 683" d="M59.254,62.336a.989.989,0,0,1,.923-.863.691.691,0,0,1,.647.874,1.022,1.022,0,0,1-.925.862.7.7,0,0,1-.645-.873" transform="translate(-17.067 -17.709)" fill="#f29092"/>
      <path id="Path_684" data-name="Path 684" d="M82.825,54.025a1.248,1.248,0,0,1,1.194-.731.583.583,0,0,1,.55.849,1.31,1.31,0,0,1-1.2.729.587.587,0,0,1-.547-.847" transform="translate(-23.845 -15.352)" fill="#f29092"/>
      <path id="Path_685" data-name="Path 685" d="M67.531,71.585a1.206,1.206,0,0,1,.967-.849c.389-.013.571.345.407.8a1.284,1.284,0,0,1-.974.851c-.369.018-.547-.342-.4-.8" transform="translate(-19.44 -20.378)" fill="#f29092"/>
      <path id="Path_686" data-name="Path 686" d="M32.433,49.2a.791.791,0,0,1,.792-.913,1.012,1.012,0,0,1,1.015.875.8.8,0,0,1-.788.909,1.037,1.037,0,0,1-1.019-.871" transform="translate(-9.341 -13.911)" fill="#f29092"/>
      <path id="Path_687" data-name="Path 687" d="M39.538,85.4c-.115-.594.105-1.061.489-1.047s.767.509.852,1.106-.133,1.064-.488,1.047-.737-.513-.853-1.107" transform="translate(-11.381 -24.299)" fill="#f29092"/>
      <path id="Path_688" data-name="Path 688" d="M27.248,76.56q-.11,1.355-.113,2.684Q26,77.815,24.807,76.4q1.218.088,2.441.159" transform="translate(-7.147 -22.009)" fill="#f29092"/>
      <path id="Path_689" data-name="Path 689" d="M48.426,60.182q-1.425-.595-2.9-1.19Q46.7,57.9,47.959,56.815c.164,1.127.322,2.25.467,3.367" transform="translate(-13.115 -16.367)" fill="#f29092"/>
      <path id="Path_690" data-name="Path 690" d="M64.368,81.441q-.05,1.359-.206,2.692-.959.04-1.933.056,1.028-1.379,2.139-2.748" transform="translate(-17.927 -23.461)" fill="#f29092"/>
    </g>
  </g>
</svg>
